<svg width="273" height="273" viewBox="0 0 273 273" fill="none" xmlns="http://www.w3.org/2000/svg">
<rect width="273" height="273" rx="38" fill="rgba(24, 45, 84, 1)"/>
<path d="M44.1333 194V84.8171H97.2359C110.691 84.8171 120.616 87.3537 127.013 92.4268C133.41 97.5 136.608 104.779 136.608 114.263C136.608 120.439 134.788 125.788 131.149 130.31C127.509 134.832 121.94 137.644 114.44 138.747V138.912C122.822 140.015 129.053 142.938 133.134 147.68C137.325 152.312 139.42 157.937 139.42 164.554C139.42 173.928 136.056 181.207 129.329 186.39C122.712 191.463 112.841 194 99.7173 194H44.1333ZM71.5945 129.483H92.2731C102.419 129.483 107.492 125.513 107.492 117.572C107.492 109.631 102.419 105.661 92.2731 105.661H71.5945V129.483ZM71.5945 173.983H94.9199C105.176 173.983 110.305 169.903 110.305 161.741C110.305 153.801 105.176 149.831 94.9199 149.831H71.5945V173.983ZM195.599 195.654C181.813 195.654 170.895 191.905 162.844 184.405C154.903 176.906 150.933 166.318 150.933 152.643C150.933 143.599 152.753 135.879 156.392 129.483C160.142 122.976 165.215 118.068 171.612 114.76C178.118 111.341 185.673 109.631 194.275 109.631C202.988 109.631 210.377 111.341 216.443 114.76C222.619 118.068 227.306 122.7 230.504 128.656C233.702 134.501 235.302 141.228 235.302 148.838C235.302 150.933 235.191 152.974 234.971 154.959C234.86 156.834 234.75 158.433 234.64 159.756H178.229C179.001 165.491 180.876 169.627 183.853 172.163C186.831 174.59 190.746 175.803 195.599 175.803C199.79 175.803 203.098 174.976 205.524 173.321C208.061 171.667 209.936 169.351 211.149 166.373L233.647 173.818C232.103 178.56 229.401 182.585 225.541 185.894C221.792 189.092 217.27 191.519 211.976 193.173C206.793 194.827 201.334 195.654 195.599 195.654ZM194.275 129.317C185.342 129.317 180.048 134.446 178.394 144.702H208.668C207.454 134.446 202.657 129.317 194.275 129.317Z" fill="white"/>
</svg>
